<svg width="512" height="512" viewBox="0 0 512 512" fill="none" xmlns="http://www.w3.org/2000/svg">
  <defs>
    <linearGradient id="bg" x1="64" y1="56" x2="456" y2="456" gradientUnits="userSpaceOnUse">
      <stop stop-color="#2F5D6A"/>
      <stop offset="1" stop-color="#183643"/>
    </linearGradient>
    <linearGradient id="folderTop" x1="108" y1="146" x2="356" y2="224" gradientUnits="userSpaceOnUse">
      <stop stop-color="#F8C36F"/>
      <stop offset="1" stop-color="#F09A53"/>
    </linearGradient>
    <linearGradient id="folderBody" x1="118" y1="202" x2="360" y2="340" gradientUnits="userSpaceOnUse">
      <stop stop-color="#FFE5A8"/>
      <stop offset="1" stop-color="#F5C875"/>
    </linearGradient>
    <linearGradient id="lens" x1="256" y1="236" x2="390" y2="366" gradientUnits="userSpaceOnUse">
      <stop stop-color="#FFF8EE"/>
      <stop offset="1" stop-color="#FFF1DE"/>
    </linearGradient>
    <filter id="shadow" x="30" y="34" width="452" height="454" filterUnits="userSpaceOnUse" color-interpolation-filters="sRGB">
      <feDropShadow dx="0" dy="22" stdDeviation="22" flood-color="#0E2028" flood-opacity="0.24"/>
    </filter>
  </defs>

  <g filter="url(#shadow)">
    <rect x="52" y="56" width="408" height="404" rx="100" fill="url(#bg)"/>
  </g>

  <path d="M108 174C108 154.118 124.118 138 144 138H206L236 170H350C369.882 170 386 186.118 386 206V220H108V174Z" fill="url(#folderTop)"/>
  <rect x="108" y="192" width="278" height="162" rx="34" fill="url(#folderBody)"/>
  <rect x="136" y="222" width="170" height="18" rx="9" fill="#FFF6E7" opacity="0.7"/>
  <path d="M144 312L194 262L230 288L274 236L334 312V326H144V312Z" fill="#6AA193"/>
  <circle cx="278" cy="248" r="14" fill="#F8A55A"/>

  <circle cx="320" cy="316" r="78" fill="url(#lens)" stroke="#EA7E3A" stroke-width="24"/>
  <circle cx="320" cy="316" r="26" fill="none" stroke="#224857" stroke-width="12"/>
  <path d="M372 368L410 406" stroke="#224857" stroke-width="28" stroke-linecap="round"/>
</svg>
